<?xml version="1.0" standalone="no"?>
<!DOCTYPE svg PUBLIC "-//W3C//DTD SVG 20010904//EN"
 "http://www.w3.org/TR/2001/REC-SVG-20010904/DTD/svg10.dtd">
<svg version="1.0" xmlns="http://www.w3.org/2000/svg"
 width="981.000000pt" height="1280.000000pt" viewBox="0 0 981.000000 1280.000000"
 preserveAspectRatio="xMidYMid meet">
<metadata>
Created by potrace 1.15, written by Peter Selinger 2001-2017
</metadata>
<g transform="translate(0.000000,1280.000000) scale(0.100000,-0.100000)"
fill="#000000" stroke="none">
<path d="M2091 12784 c-30 -8 -77 -27 -105 -42 -59 -31 -299 -261 -386 -369
-156 -193 -154 -317 5 -543 30 -43 72 -114 92 -157 33 -67 38 -88 37 -148 0
-38 -4 -80 -8 -92 -7 -19 -5 -21 16 -16 37 9 19 -3 -78 -51 -96 -48 -175 -110
-199 -157 -21 -41 -19 -106 6 -145 24 -39 25 -39 -32 -19 -57 21 -210 45 -281
45 -168 0 -319 -61 -423 -171 -59 -63 -113 -145 -102 -155 2 -3 47 0 98 7 307
37 609 -63 819 -273 98 -98 106 -119 23 -61 -241 171 -472 283 -582 283 -17 0
-31 -4 -31 -9 0 -6 11 -45 25 -89 43 -137 134 -251 244 -307 28 -14 51 -28 51
-31 0 -21 -48 -77 -87 -104 -76 -50 -131 -62 -318 -69 -188 -8 -218 -16 -272
-72 -128 -136 -97 -407 66 -570 61 -61 125 -98 212 -123 l55 -16 -102 -105
c-251 -257 -487 -605 -619 -915 -155 -362 -225 -724 -212 -1090 16 -412 78
-641 392 -1430 308 -774 496 -1097 714 -1224 35 -20 116 -55 180 -77 140 -48
175 -70 243 -153 74 -89 122 -173 315 -551 203 -396 288 -539 416 -704 l49
-63 -60 -58 c-68 -66 -126 -100 -173 -100 -66 0 -120 40 -329 245 -243 237
-328 313 -435 390 -253 181 -405 191 -698 44 -56 -29 -173 -83 -260 -120 -170
-74 -255 -124 -283 -167 -17 -26 -36 -186 -37 -313 -1 -57 24 -126 72 -199 48
-74 226 -248 277 -271 23 -10 47 -26 54 -34 20 -24 30 -18 20 11 -8 21 -7 29
7 39 15 11 15 18 -10 93 -28 83 -37 148 -11 78 33 -91 89 -141 130 -118 15 8
26 3 56 -24 56 -50 73 -45 44 13 -23 44 -23 48 -8 79 14 31 14 35 -1 52 -30
33 -56 106 -81 232 l-25 124 24 42 c49 84 141 144 222 144 50 0 127 -28 189
-69 110 -74 103 -59 107 -227 5 -177 26 -271 93 -413 44 -95 117 -202 173
-255 l30 -29 -21 54 c-71 185 -109 400 -88 494 21 96 62 112 182 75 72 -22
104 -51 183 -165 61 -88 282 -310 355 -358 161 -106 349 -107 529 -5 87 50
199 146 228 196 l27 46 43 -90 c167 -354 140 -757 -82 -1209 -68 -139 -135
-233 -288 -401 -86 -95 -131 -166 -157 -249 -25 -79 -81 -111 -179 -102 -72 7
-132 27 -256 87 -119 57 -162 70 -236 70 -53 0 -90 -18 -100 -49 -2 -6 -37
-13 -76 -17 -74 -7 -92 -17 -50 -28 29 -7 107 -63 107 -76 0 -6 -6 -10 -13
-10 -20 0 -157 -68 -157 -78 0 -5 -16 -12 -36 -15 -54 -9 -119 -52 -138 -91
-27 -56 -18 -128 10 -87 22 30 82 54 120 47 25 -5 44 -21 80 -66 59 -76 124
-120 175 -120 21 0 71 8 111 17 52 12 120 17 233 17 173 0 264 -13 464 -64
128 -34 190 -37 276 -15 99 26 165 82 181 155 13 56 27 78 65 100 42 23 55 23
205 4 65 -8 86 3 116 63 22 45 23 58 22 238 0 126 -6 214 -15 261 l-15 70 150
0 c113 0 167 5 216 18 147 40 248 111 309 218 17 29 31 58 31 64 0 8 -27 3
-77 -13 -43 -13 -115 -29 -160 -36 -154 -20 -306 23 -408 116 l-46 42 51 150
c78 225 186 464 295 655 27 46 48 99 56 138 18 93 6 263 -27 407 -15 66 -27
131 -27 145 1 14 20 79 42 145 22 66 43 132 46 148 4 20 21 37 66 65 646 398
1172 783 1449 1061 132 133 200 229 235 332 40 115 88 154 185 147 195 -14
453 -278 535 -548 21 -70 31 -233 17 -283 -6 -20 -7 -37 -3 -37 14 0 116 114
158 175 76 113 123 227 149 364 8 41 16 76 18 78 4 4 5 -6 38 -202 18 -106 22
-173 22 -360 1 -206 -1 -239 -21 -317 -36 -140 -89 -233 -167 -290 l-41 -30
40 7 c49 9 143 54 206 100 222 164 395 519 478 980 17 95 27 186 57 483 3 28
9 52 14 52 16 0 141 -145 196 -226 114 -171 156 -305 157 -494 0 -107 -4 -138
-27 -214 -35 -116 -102 -245 -184 -354 l-65 -86 44 34 c69 54 267 256 342 350
219 272 364 565 429 863 19 86 22 133 22 302 1 229 -11 304 -75 503 -96 294
-282 584 -579 903 -104 112 -105 111 45 52 581 -227 992 -682 1090 -1205 110
-588 -96 -1289 -616 -2101 -49 -76 -89 -141 -89 -144 0 -11 132 109 248 226
475 478 770 1054 853 1661 19 138 16 468 -5 613 -64 443 -225 853 -503 1281
-71 109 -210 301 -278 381 -64 76 -63 82 1 37 184 -129 458 -387 598 -562 246
-309 435 -689 519 -1045 78 -332 87 -686 26 -1045 -41 -241 -130 -537 -234
-778 -30 -69 -53 -127 -51 -129 6 -6 184 212 264 324 519 726 703 1530 521
2273 -122 495 -404 964 -849 1411 -192 193 -343 325 -562 490 -498 375 -925
606 -1296 701 -140 35 -343 48 -457 29 -336 -57 -578 -273 -809 -722 -41 -79
-131 -272 -201 -429 -239 -539 -359 -729 -533 -843 -116 -77 -167 -91 -317
-91 -124 0 -135 2 -240 37 -184 63 -415 199 -620 364 -111 89 -296 275 -366
368 -65 85 -162 235 -156 241 3 3 63 -4 134 -15 142 -23 183 -26 183 -12 0 5
-48 74 -107 153 -298 401 -442 686 -472 934 -4 35 -7 64 -7 64 1 0 31 -28 67
-63 106 -101 218 -167 285 -167 l24 0 -31 53 c-131 221 -262 551 -293 736 -26
153 -22 216 28 412 24 96 49 224 56 284 28 247 -20 474 -141 662 -27 43 -41
67 -30 55 l21 -24 40 34 c56 48 127 85 200 104 65 16 101 14 176 -11 57 -19
94 -8 117 36 48 92 -43 266 -196 375 -125 89 -197 185 -197 262 0 77 61 141
157 165 41 10 48 16 51 38 4 35 -57 88 -147 126 -71 30 -44 29 -392 20 -65 -2
-81 1 -99 18 -33 30 -42 61 -29 108 17 65 52 91 144 111 193 40 235 58 235 98
0 35 -53 73 -170 122 -63 27 -164 74 -225 106 -266 140 -466 187 -624 144z"/>
</g>
</svg>
